PathFileType	4	(X/Y/Z)	T1_P1_NoVision_NoMovement_0_0-649.trc
DataRate	CameraRate	NumFrames	NumMarkers	Units	OrigDataRate	OrigDataStartFrame	OrigNumFrames
60	60	7	27	m	60	243	649
Frame#	Time	RHip			RKnee			RAnkle			RBigToe			RSmallToe			RHeel			LHip			LKnee			LAnkle			LBigToe			LSmallToe			LHeel			Neck			Head			Nose			RShoulder			RElbow			RWrist			RThumb			RIndex			RPinky			LShoulder			LElbow			LWrist			LThumb			LIndex			LPinky		
		X1	Y1	Z1	X2	Y2	Z2	X3	Y3	Z3	X4	Y4	Z4	X5	Y5	Z5	X6	Y6	Z6	X7	Y7	Z7	X8	Y8	Z8	X9	Y9	Z9	X10	Y10	Z10	X11	Y11	Z11	X12	Y12	Z12	X13	Y13	Z13	X14	Y14	Z14	X15	Y15	Z15	X16	Y16	Z16	X17	Y17	Z17	X18	Y18	Z18	X19	Y19	Z19	X20	Y20	Z20	X21	Y21	Z21	X22	Y22	Z22	X23	Y23	Z23	X24	Y24	Z24	X25	Y25	Z25	X26	Y26	Z26	X27	Y27	Z27
244	4.066666666666666	-76.27520807146036	3813.021607783208	-508.050372850391	295.180897575329	3976.9739743181003	-518.1843601951043	628.8161277205479	4122.469511821141	-526.3429041676336	724.9838781455118	4044.261037328262	-511.45915477681905	731.6513143231515	4057.7324359304275	-596.6462673763748	657.6610673609609	4174.415531438917	-518.1551913817054	-104.78030494704647	3910.6463301935214	-341.30169054288126	255.0350111237612	4023.3321497945794	-336.430875508367	594.754256384765	4222.681945976114	-360.69134638435054	673.6092869932464	4134.426716320604	-244.4034471354952	652.7141761301896	4232.2751431692795	-226.19382892369796	626.3730588008432	4259.808431151921	-379.540491772755	-627.599748828784	3676.0913315068556	-450.5971508211816	-870.601897116621	3462.9160980184583	-341.7385474777148	-696.5252211189915	3499.8639195575547	-297.9869294672979	-556.8332504666055	3608.320587128738	-562.7329482158456	-289.7168226740812	3724.8538242453637	-661.5337465222714	-33.45169119828744	3740.6704361858483	-589.1095738660467	73.75755535136246	3753.8635803485977	-537.7100500545365	102.9144232749767	3778.0866128916136	-558.4501529788587	92.82987009014064	3796.1827413927767	-582.872249529536	-615.8581548605661	3823.6669289839565	-342.69985636478486	-374.3632347623276	3967.93771076068	-290.1006685972376	-131.6142552010552	3951.0104113720213	-209.4958106049981	-17.737351747218607	3967.714731811818	-215.1645954227624	11.302322321286692	3990.9879223873713	-204.11949697576028	-10.26640338357376	4003.628619006047	-196.2966848089338
245	4.083333333333333	-76.3507590491631	3812.522077682778	-507.89225390910406	295.22928712969394	3976.773827461993	-518.2330023283713	629.0270941763871	4122.970309602989	-526.5351866042535	731.3392973072017	4042.638944689497	-510.2430540387055	737.77353886116	4078.1289147038756	-610.9342758374286	663.1375036807386	4174.613577922874	-517.7366933747302	-104.84871814233628	3910.425941638284	-341.24148607756297	260.33176601540197	4026.031358799164	-335.8293392437219	603.6394639684419	4252.756053400247	-358.8268061351934	679.053270485407	4157.884582116209	-258.6602425062733	652.8235043626553	4232.323520290946	-226.27284574624815	631.2100928008342	4292.645341227748	-385.45380208910365	-627.5591687237164	3676.1267673680663	-450.62809117578934	-870.5970979033157	3462.870215548936	-341.7546394410489	-696.5132950585473	3500.0283968076706	-298.09564569266615	-556.8598508738814	3608.279096803661	-562.7265044289377	-289.55756022313005	3724.872891588462	-661.575162726708	-33.44220522068423	3740.576115149912	-589.0118965273596	73.86267257044662	3753.779646156195	-537.6316741802514	103.12894090462578	3778.062663832758	-558.371282773083	92.85866871667416	3796.303558783527	-583.0028579282607	-615.9069579557101	3823.760559246693	-342.7538470819817	-374.364632451218	3967.9906265857567	-290.16816356722995	-131.69242273750385	3951.1025119206442	-209.45437482754937	-17.617363003506313	3968.0589149450257	-215.30683595691033	11.455276656062368	3990.9796192322106	-203.96556653244227	-10.308402419553115	4003.8084680833754	-196.17950241049456
246	4.1	-75.50798809468252	3831.3484412477023	-522.2417924134899	295.28580011797146	3976.938104002126	-518.3157914086482	629.0012325175654	4122.638392565064	-526.4872381781231	725.6812379706797	4043.4123590759655	-510.85514711767684	732.022322684495	4057.662500462266	-596.6000082629465	663.0650746667991	4174.275067310272	-517.7725174819878	-104.74970305678359	3910.4693564987815	-341.3161122503743	260.4665568756504	4025.914181894758	-335.81819801173174	603.7808157233678	4252.87431057296	-358.94461524264324	673.6265167667926	4133.970243205021	-244.30150039896284	652.8885872691227	4232.114924305718	-226.19419064630125	633.5229032311265	4265.42551765505	-381.77785186028143	-627.592022062423	3676.0196951637063	-450.5598469065447	-874.5001902737562	3461.4993210506505	-346.71408591948403	-696.5574411557468	3499.7210507346663	-297.9733795783813	-556.8582641716398	3608.3295927029367	-562.7449272007593	-289.97896387481023	3742.7529460237624	-676.591953613465	-33.43272469029817	3740.694213824852	-589.0665865336547	73.80098078272097	3754.0242856040522	-537.7712028512228	103.17612810959075	3778.1451177831923	-558.4392350014551	94.4579822715737	3813.575997698974	-597.0879621846836	-615.8740319991132	3823.662285910606	-342.738690931957	-374.33277703730124	3968.134214626495	-290.24028124739846	-131.7176731814546	3950.9261375484057	-209.46557526938514	-17.815924925714814	3966.89259427308	-215.01089308533662	11.20733605656219	3990.2681881700323	-203.85846552068665	-10.592879314781863	4003.115856629833	-196.02357062141235
247	4.116666666666666	-75.55506027109676	3831.3873803139977	-522.3570600344747	296.3510215867094	3978.1764225979705	-525.2636163276297	629.214928123613	4123.0495554466215	-526.6131289223803	731.2720099929364	4042.3445469362687	-510.0873956308857	732.3352479917244	4057.7207439344693	-596.6592519919596	663.2253456257598	4174.570514631684	-517.7988768673121	-104.75626486153661	3910.5382826851323	-341.3366878222949	260.4983976909031	4025.892945636893	-335.7343991469343	599.361845857865	4220.591295046789	-352.64941545418577	677.7093461907732	4132.221506970703	-237.1324559845286	653.8352682929034	4201.43281675196	-220.86129601237553	633.9255701108655	4264.875485388985	-381.24641937215927	-627.5174344908868	3676.1162097213214	-450.61621170953356	-870.4733711084432	3462.6587763749562	-341.578534624287	-696.4701216841034	3500.090382298623	-298.07054671757356	-556.8926635043579	3608.3548817361893	-562.7593987459813	-285.37454496434134	3743.1759303084273	-676.2931918950604	-33.467978798544124	3740.9617333813717	-589.1735364454104	73.83671042848464	3754.36585844085	-537.9819100421728	103.10357631862945	3778.422117850485	-558.5927161387299	94.38017214819592	3813.933562066567	-597.3470759675639	-615.9085395858198	3823.5729678059133	-342.76356758502124	-378.85267465138907	3964.6590640174363	-288.86583580820263	-131.75761412164502	3950.961461012492	-209.40158419732828	-17.896694597908212	3966.8037633372173	-214.98228522527427	11.199780084439471	3990.3587146197196	-203.82915225630364	-10.656420834322226	4003.01622143237	-195.99638097458984
248	4.133333333333334	-75.39216422170146	3831.718746325585	-522.5425281224468	302.176327217686	3980.604584906723	-524.4752173217098	629.3606389402086	4123.377653036425	-526.7252559037809	720.7503931697902	4012.084677689331	-503.5756804548823	732.2695074366716	4057.308306112611	-596.5082408582368	663.4581409248586	4175.073419105301	-517.8616105038051	-109.80725603276875	3907.0242194888338	-339.88164809342646	260.5257221817172	4026.0262513710613	-335.7744699357266	596.6951310739721	4247.515660986645	-356.41326643754826	684.4952932927125	4157.934563516814	-258.3777093761835	654.0802646010619	4201.873275293551	-221.11023756909458	631.1535276240353	4292.63588914795	-385.15006851927046	-627.4977004787761	3675.9413106248194	-450.58500390462115	-870.7851761340363	3464.0839745293633	-347.6320675258991	-696.5884220055345	3500.0858009648114	-298.09293387375095	-556.7960993139275	3608.181021492792	-562.8216258944443	-285.2664678777464	3743.2748597285117	-676.3544750208004	-33.386610327003226	3740.882734361346	-589.1266907210271	73.76610211152139	3754.0344427458626	-537.6132691368709	101.45331021393973	3761.3137137136223	-544.8933836187854	99.26968200389467	3790.108272411569	-590.4562175969364	-615.8963665567263	3823.6154278651356	-342.82410411237663	-378.8378048341054	3965.0563512795325	-289.1493356288793	-131.85705344771085	3950.8040304809156	-209.32388340119093	-18.178228034116252	3966.394747218575	-214.67539686100417	6.489991794551239	3986.750233886374	-202.3016288995401	-10.61608745925084	4002.7776169469607	-195.93819393662523
249	4.15	-75.5155752330004	3831.621341227786	-522.5545173944348	301.4353579833882	3980.4890919338904	-518.3000398872533	633.7205126444026	4153.452878653236	-533.3003717154345	720.4146438808589	4013.087881018725	-504.0978651223386	737.4925819616925	4077.848086455219	-610.9187935241727	663.469588773817	4175.038530073611	-517.5994971180722	-109.8411131645982	3907.059448251744	-339.9182868483293	260.55661540056946	4026.257880319014	-335.80840330999865	603.8074850365159	4253.161949436086	-358.60322992036123	673.8191262845526	4134.421269771382	-244.67771783217967	654.3015191337248	4201.681184839635	-221.03536704063893	638.7037268946975	4297.5751861142135	-386.9920570125193	-627.5978158108405	3676.1012494607025	-450.62036877622626	-870.7534689285769	3464.093706891892	-347.648314931514	-696.5392404474976	3499.776503957822	-297.9738599932576	-556.8170375094604	3608.2608569723598	-562.8200473033869	-290.0266345929961	3742.7592794407155	-676.6106322898129	-33.43684035698863	3740.8087488007245	-589.1236303991503	73.77512349023344	3753.9312640872254	-537.703128319737	101.52552728167659	3761.095064327982	-544.8957433190345	99.16968945467902	3790.2728946843827	-590.7066358831339	-615.792972203196	3823.572303991057	-342.67661812181535	-374.22643190710426	3968.3962686154346	-290.2693544202988	-126.61467671026159	3954.707622175093	-210.78757934957878	-13.017916606793435	3970.6509071702776	-216.36372915634453	11.526047544413677	3990.579097576165	-203.78944504788345	-10.252904568429175	4003.5065671325096	-196.077120258392
250	4.166666666666667	-70.67424368208026	3834.6750117262586	-523.9133201833445	295.4919767550579	3977.321254901035	-518.6606656426587	629.2675888825014	4122.844879759846	-526.4787871804879	720.4521963078615	4012.71737406157	-503.8558517549015	737.2216162750484	4077.205795040875	-610.7554645804012	658.0996932985602	4174.829622244008	-518.1374267527327	-104.74355244978881	3910.7586077004153	-341.3825802263354	260.5769271394251	4026.3673358084743	-335.9132790114565	603.6785388482998	4252.746068666302	-358.5380106046012	679.285856957157	4158.975601404744	-259.2106068787416	654.1577299949844	4201.962915836708	-221.17242555511658	631.2310694791456	4292.232323498216	-384.9800014781613	-627.6257898747997	3675.9828549922545	-450.5516075141828	-870.7499279115794	3464.0830743129327	-347.76955088889144	-696.6033558265217	3499.855117460724	-298.07913895930966	-556.808525904586	3608.22058396126	-562.7893421105829	-289.9681643465885	3742.8218890244634	-676.5829937616782	-33.52005433870291	3740.721814662222	-589.088783244502	73.7291877035369	3753.999174903051	-537.7355119272363	101.31500802875767	3761.087858406433	-544.8933717115276	92.33664852128827	3770.6135807856085	-577.0062943201729	-615.8120103263802	3823.5414706926185	-342.6866805814989	-374.31522360375897	3968.2521836745796	-290.17537389542326	-132.23718772046539	3931.739920132523	-197.01063269149736	-18.195227508956286	3965.8937167062527	-214.3496905569069	5.938786221644935	3988.0507922491215	-204.33430857447695	-10.42604719254935	4031.0451989906865	-200.36776186790402
